HIERARCHY
ROOT Hips
{
	OFFSET -3.958830 18.904000 13.208200
	CHANNELS 6 Xposition Yposition Zposition Zrotation Yrotation Xrotation 
	JOINT LHipJoint
	{
		OFFSET 0.000000 0.000000 0.000000
		CHANNELS 3 Zrotation Yrotation Xrotation
		JOINT LeftUpLeg
		{
			OFFSET 1.800000 -1.400000 0.085000
			CHANNELS 3 Zrotation Yrotation Xrotation
			JOINT LeftLeg
			{
				OFFSET 2.215000 -6.000000 0.000000
				CHANNELS 3 Zrotation Yrotation Xrotation
				JOINT LeftFoot
				{
					OFFSET 2.500000 -6.900000 0.000000
					CHANNELS 3 Zrotation Yrotation Xrotation
					JOINT LeftToeBase
					{
						OFFSET 0.200000 -0.500000 1.950000
						CHANNELS 3 Zrotation Yrotation Xrotation
						End Site
						{
							OFFSET 0.000000 0.000000 0.000000
						}
					}
				}
			}
		}
	}
	JOINT RHipJoint
	{
		OFFSET 0.000000 0.000000 0.000000
		CHANNELS 3 Zrotation Yrotation Xrotation
		JOINT RightUpLeg
		{
			OFFSET -1.800000 -1.400000 0.085000
			CHANNELS 3 Zrotation Yrotation Xrotation
			JOINT RightLeg
			{
				OFFSET -2.215000 -6.000000 0.000000
				CHANNELS 3 Zrotation Yrotation Xrotation
				JOINT RightFoot
				{
					OFFSET -2.500000 -6.900000 0.000000
					CHANNELS 3 Zrotation Yrotation Xrotation
					JOINT RightToeBase
					{
						OFFSET -0.200000 -0.500000 1.950000
						CHANNELS 3 Zrotation Yrotation Xrotation
						End Site
						{
							OFFSET 0.000000 0.000000 0.000000
						}
					}
				}
			}
		}
	}
	JOINT LowerBack
	{
		OFFSET 0.000000 0.000000 0.000000
		CHANNELS 3 Zrotation Yrotation Xrotation
		JOINT Spine
		{
			OFFSET -0.087000 1.940000 -0.288900
			CHANNELS 3 Zrotation Yrotation Xrotation
			JOINT Spine1
			{
				OFFSET 0.000000 1.950000 0.060000
				CHANNELS 3 Zrotation Yrotation Xrotation
				JOINT Neck
				{
					OFFSET 0.000000 0.000000 0.000000
					CHANNELS 3 Zrotation Yrotation Xrotation
					JOINT Neck1
					{
						OFFSET 0.000000 1.600000 0.340000
						CHANNELS 3 Zrotation Yrotation Xrotation
						JOINT Head
						{
							OFFSET 0.000000 1.667000 -0.240000
							CHANNELS 3 Zrotation Yrotation Xrotation
							End Site
							{
								OFFSET 0.000000 0.000000 0.000000
							}
						}
					}
				}
				JOINT LeftShoulder
				{
					OFFSET 0.000000 0.000000 0.000000
					CHANNELS 3 Zrotation Yrotation Xrotation
					JOINT LeftArm
					{
						OFFSET 2.700000 1.550000 -0.730000
						CHANNELS 3 Zrotation Yrotation Xrotation
						JOINT LeftForeArm
						{
							OFFSET 5.450000 0.000000 0.000000
							CHANNELS 3 Zrotation Yrotation Xrotation
							JOINT LeftHand
							{
								OFFSET 3.450000 0.000000 0.000000
								CHANNELS 3 Zrotation Yrotation Xrotation
								JOINT LeftHandIndex1
								{
									OFFSET 0.750000 0.000000 0.000000
									CHANNELS 3 Zrotation Yrotation Xrotation
									End Site
									{
										OFFSET 0.000000 0.000000 0.000000
									}
								}
							}
						}
					}
				}
				JOINT RightShoulder
				{
					OFFSET 0.000000 0.000000 0.000000
					CHANNELS 3 Zrotation Yrotation Xrotation
					JOINT RightArm
					{
						OFFSET -2.700000 1.550000 -0.730000
						CHANNELS 3 Zrotation Yrotation Xrotation
						JOINT RightForeArm
						{
							OFFSET -5.450000 0.000000 0.000000
							CHANNELS 3 Zrotation Yrotation Xrotation
							JOINT RightHand
							{
								OFFSET -3.450000 0.000000 0.000000
								CHANNELS 3 Zrotation Yrotation Xrotation
								JOINT RightHandIndex1
								{
									OFFSET -0.750000 0.000000 0.000000
									CHANNELS 3 Zrotation Yrotation Xrotation
									End Site
									{
										OFFSET 0.000000 0.000000 0.000000
									}
								}
							}
						}
					}
				}
			}
		}
	}
}
MOTION
Frames: 14
Frame Time: 0.016667
-1.351830 17.525930 -2.554410 18.144555 5.282889 -27.112484 -16.387263 12.260995 6.939748 -9.172036 -13.304416 -72.511097 3.597999 14.866519 70.903875 2.065371 12.263002 0.355890 0.608330 0.399040 0.676460 17.425608 -9.085124 0.803022 -21.963857 2.234406 6.465326 0.158467 -5.360114 18.430423 -0.773262 -4.509560 2.647231 -0.202810 -0.513470 0.377830 -0.757856 -5.580202 -8.876118 -14.573599 22.310612 56.848441 12.038883 18.787105 3.123247 3.276372 -1.463857 -16.544107 -1.031630 -4.056168 54.022698 -3.248680 -5.598470 -17.963700 -17.036068 -11.288309 8.217543 -57.705206 19.631294 -24.365328 -72.480323 -15.039787 -1.922397 -2.889094 3.463487 0.495270 -0.502220 0.639840 0.100110 10.831102 29.898797 11.145848 27.791441 19.684008 -14.507556 -144.821975 8.580300 -75.259421 2.428702 -2.070913 0.485020 -0.279830 -0.433840 0.037480 
-1.303250 17.711260 -2.601820 17.951480 3.415130 -26.438496 -16.363677 12.135699 7.045838 -4.969846 -12.412430 -71.281674 -0.804461 19.913927 75.787085 2.487173 13.975406 -0.068309 0.656160 0.450270 0.721300 17.461941 -9.170167 0.685235 -21.279760 1.746294 3.467116 -0.754403 -4.867215 18.721759 -0.737836 -4.163929 2.752464 -0.175870 -0.534450 0.387690 -0.857955 -5.287179 -8.914020 -14.722664 21.636336 55.242325 12.622910 17.624849 4.037432 2.733612 -1.685265 -16.608005 -1.962519 -3.213371 55.800319 -3.295270 -5.554950 -18.726960 -17.330458 -12.224193 8.417393 -57.105635 18.909353 -23.823552 -71.719606 -15.568198 -1.516026 -2.891234 3.452142 0.518610 -0.515130 0.673210 0.104130 12.497142 29.730355 11.489336 30.195300 17.781278 -14.980362 -144.198577 15.563571 -91.986644 2.469110 -1.892013 0.497920 -0.263290 -0.451420 0.030230 
-1.253860 17.884370 -2.663750 17.159528 1.242182 -25.896063 -16.304002 12.147818 7.060350 -1.700498 -11.150257 -68.107700 -4.453227 24.246373 78.171786 2.819756 15.154364 -0.349548 0.695730 0.506630 0.755180 17.502785 -9.344691 0.578504 -19.852920 1.602274 -0.749134 -1.353227 -4.399297 21.424689 -0.688225 -3.867336 2.823544 -0.151190 -0.574030 0.386660 -1.009638 -4.966676 -8.921820 -14.043340 20.373102 54.612766 12.605508 16.475832 3.850395 2.284489 -2.303165 -16.772980 -3.538510 -1.719521 57.816892 -3.623260 -5.112650 -19.056920 -17.378859 -12.716469 8.377944 -56.578291 18.334383 -23.364748 -70.772908 -14.765537 -2.008805 -2.884271 3.447816 0.529530 -0.538850 0.706980 0.097210 13.700157 29.521898 11.861868 33.260147 15.803038 -15.487877 -144.197679 22.674074 -107.332173 2.551979 -1.768254 0.520450 -0.265020 -0.468870 0.028460 
-1.200500 18.053240 -2.741920 15.472584 -0.706617 -25.577595 -16.223607 12.307179 6.949793 0.389389 -10.021438 -63.216777 -6.583477 26.727235 78.843357 2.980593 15.702393 -0.489911 0.751240 0.559650 0.805910 17.542051 -9.483834 0.599520 -17.429260 2.242141 -5.489922 -1.532570 -4.059268 26.592050 -0.697370 -3.802676 2.802732 -0.130870 -0.637120 0.391230 -1.175291 -4.808931 -8.933834 -12.265511 18.263520 55.336262 12.068688 15.074414 2.932085 2.219715 -3.305388 -17.325898 -6.318827 0.289683 60.500678 -3.931760 -4.908700 -20.502130 -17.675393 -13.716716 8.533308 -56.645483 18.156761 -23.596856 -69.542075 -14.168564 -2.665887 -2.851627 3.436427 0.577750 -0.590030 0.759450 0.089930 14.481210 29.989011 12.305304 36.220721 13.393805 -16.883045 -144.178356 29.762581 -120.266419 2.631472 -1.686358 0.542910 -0.268800 -0.488940 0.014570 
-1.138350 18.204490 -2.817950 13.021597 -2.962870 -25.168378 -16.142645 12.524079 6.667487 2.104183 -8.439134 -57.699038 -7.364176 27.689443 78.590096 3.010120 15.772146 -0.535603 0.801700 0.617530 0.854260 17.587303 -9.448375 0.869573 -13.974308 3.942779 -10.422477 -1.581322 -3.805074 33.232187 -0.790701 -4.089371 2.659078 -0.112100 -0.709280 0.386930 -1.330758 -4.811376 -8.982659 -9.627278 15.635871 56.482159 11.258616 13.729646 1.267685 2.490550 -4.310646 -17.917704 -9.522748 2.502865 63.354217 -4.712690 -4.675990 -22.151240 -19.037310 -14.596857 8.664477 -56.489580 18.821460 -24.049461 -68.149600 -13.199443 -3.669075 -2.813014 3.409220 0.625860 -0.651120 0.818300 0.077830 15.680595 30.430320 12.636951 38.766720 10.481585 -18.533649 -144.366190 37.659292 -132.108845 2.704950 -1.656322 0.567270 -0.268710 -0.508310 0.004270 
-1.070330 18.325230 -2.896150 9.614965 -3.812027 -24.271811 -16.052904 12.563735 6.302614 3.676903 -7.534452 -52.567998 -7.180079 27.359236 78.174066 2.960220 15.576906 -0.509362 0.860390 0.680990 0.908120 17.671501 -9.129545 1.495467 -11.056099 6.966772 -16.093306 0.379540 -4.832731 41.676851 -1.032188 -5.047812 2.297539 -0.084960 -0.768510 0.379860 -1.560445 -4.820637 -9.148458 -5.576188 11.556333 58.009330 9.662696 11.584070 -0.256412 2.954237 -5.003245 -18.636873 -12.304641 4.475295 65.815097 -5.234680 -4.607330 -23.936780 -20.093634 -16.144462 8.930820 -56.235353 19.058660 -24.462802 -66.739090 -12.150408 -4.738043 -2.768056 3.371580 0.680150 -0.709070 0.881620 0.084880 16.007484 31.110179 12.972979 41.804189 7.729096 -20.779912 -143.901091 45.671790 -141.150916 2.744618 -1.646583 0.581100 -0.246810 -0.539830 -0.003490 
-0.991170 18.405580 -2.960920 5.497087 -3.799783 -22.927673 -15.960760 12.566195 5.743263 4.694546 -6.871462 -47.319906 -5.548493 24.942859 76.621960 2.756133 14.835707 -0.352386 0.904630 0.727700 0.945530 17.780164 -8.598553 2.432012 -9.167972 10.599372 -22.436757 3.935207 -7.511382 49.945688 -1.390886 -6.480594 1.814754 -0.065330 -0.802510 0.375750 -1.832293 -4.945705 -9.354281 -0.603053 6.305049 58.964511 7.684509 8.647185 -1.456366 3.595091 -5.690081 -19.249021 -15.071014 6.375396 66.984474 -6.095220 -4.441020 -25.123420 -20.825491 -17.668530 9.305720 -56.328730 19.412049 -25.110162 -65.512096 -11.648111 -5.497725 -2.732127 3.338922 0.719190 -0.746270 0.926600 0.098930 15.446570 31.709201 13.116705 44.882728 5.852179 -22.987156 -142.821002 54.789624 -148.264759 2.738487 -1.674564 0.589080 -0.221520 -0.564000 -0.005480 
-0.910120 18.446400 -3.015800 1.107092 -3.197396 -21.601209 -15.869727 12.610504 5.025464 5.823644 -6.020272 -41.967111 -3.147632 21.344800 73.731876 2.434382 13.714425 -0.088074 0.916810 0.737060 0.953250 17.903205 -7.978645 3.492227 -8.933162 14.259997 -29.046378 9.165102 -12.090297 56.939964 -1.832628 -8.230012 1.280866 -0.056080 -0.799330 0.365750 -2.121211 -5.215998 -9.517903 4.907430 0.528900 59.507450 5.439258 5.349452 -2.231165 4.388409 -6.659419 -19.469659 -18.584426 8.466772 66.161953 -6.700180 -4.341450 -26.234250 -21.523703 -18.746537 9.529333 -56.157093 19.450106 -25.445026 -64.387314 -12.119290 -5.536008 -2.717852 3.305993 0.744230 -0.760800 0.937430 0.108810 14.437373 32.067150 12.989220 47.080791 4.910255 -24.790207 -141.325192 63.966445 -152.533422 2.680504 -1.722913 0.576410 -0.183670 -0.564040 -0.005440 
-0.823080 18.446060 -3.065400 -3.090086 -2.318813 -20.110784 -15.775587 12.668968 4.249138 7.190223 -5.014245 -36.993498 -0.881809 17.662302 69.340522 2.080334 12.390389 0.250658 0.912720 0.735410 0.935520 18.039774 -7.392999 4.523256 -10.840813 17.373620 -36.351178 15.476271 -18.285938 62.451454 -2.337510 -10.204155 0.732245 -0.053550 -0.780260 0.359570 -2.426341 -5.492668 -9.594442 10.635298 -5.274366 59.074797 3.205879 1.786330 -2.568842 5.158481 -7.917270 -19.248207 -22.573724 10.465487 63.152849 -7.444400 -4.099270 -26.924260 -21.912363 -19.103954 9.568572 -55.788624 19.105509 -25.332200 -63.580258 -12.977995 -5.147674 -2.715578 3.310835 0.735650 -0.755470 0.921750 0.117330 13.088158 31.823891 12.488790 48.379622 5.279715 -25.078551 -135.436009 72.850714 -149.540923 2.685126 -1.725694 0.570590 -0.166210 -0.556500 0.004480 
-0.728190 18.404960 -3.103910 -7.299243 -2.744791 -18.401254 -15.629820 12.694989 3.416862 9.772821 -3.164184 -32.040542 0.360186 14.961513 63.100788 1.746689 11.009030 0.642308 0.890570 0.717400 0.880920 18.226812 -6.985585 5.483730 -13.327639 20.205848 -43.982381 21.783589 -25.002231 66.452322 -2.853684 -12.128516 0.259259 -0.060380 -0.727430 0.363580 -2.869324 -5.418578 -9.592788 17.049919 -10.903751 57.608581 0.203647 -1.354356 -3.163740 6.201422 -9.453652 -18.018921 -26.818882 12.074638 58.102448 -7.457730 -3.951840 -26.421690 -21.524831 -18.191772 9.749333 -55.626614 18.940785 -24.956988 -63.175164 -14.489077 -4.200638 -2.713375 3.350695 0.691460 -0.726340 0.881960 0.145250 10.740837 30.571828 10.113152 50.810744 7.066138 -29.547665 -86.232491 87.908230 -93.054755 3.827912 6.321935 0.570170 -0.164540 -0.549190 0.035770 
-0.622250 18.320980 -3.134350 -11.290141 -4.733560 -15.854927 -15.488006 12.660351 2.620917 13.165663 -0.890368 -27.343970 0.090268 13.432782 54.985675 1.397027 9.591086 1.065391 0.853480 0.683860 0.826320 18.417426 -6.755883 6.265146 -15.669269 22.977519 -51.640681 27.138925 -31.110939 69.100424 -3.291755 -13.742771 -0.090507 -0.062840 -0.657820 0.368430 -3.324511 -4.967005 -9.445435 24.702953 -15.582978 54.255200 -3.296047 -3.130006 -1.391892 6.284675 -10.797027 -18.056221 -28.438192 12.456050 53.138941 -8.151140 -3.003960 -25.199950 -20.585539 -18.153663 9.561790 -56.047779 17.750993 -24.612079 -62.409276 -15.892922 -3.266703 -2.762030 3.384033 0.638080 -0.670490 0.827720 0.167230 8.961267 30.838636 11.086289 51.834557 8.598584 -30.266737 -13.500204 85.426234 -24.746803 2.331036 -1.303663 0.551690 -0.158850 -0.533180 0.056530 
-0.523000 18.202370 -3.157550 -14.414591 -8.155854 -12.530030 -15.356256 12.568725 2.060345 16.467533 1.076732 -22.827515 -2.030832 13.040374 46.351154 1.117149 8.371408 1.445440 0.849190 0.681570 0.821400 18.583792 -6.731698 6.758244 -15.796308 26.125238 -57.003804 28.565120 -34.399107 72.046247 -3.595619 -14.821170 -0.302530 -0.052790 -0.617870 0.383530 -3.765176 -4.294459 -9.307140 30.773572 -18.250741 50.387289 -6.580790 -3.861186 0.228750 6.681474 -11.500717 -17.294005 -28.424381 12.444216 49.227932 -9.253180 -1.425820 -24.795020 -18.906823 -16.972911 9.202928 -56.532784 16.329155 -23.880281 -61.680017 -16.346150 -2.763931 -2.804736 3.410465 0.600990 -0.622910 0.798630 0.180280 6.216071 29.756518 10.406680 53.630761 12.434062 -27.379118 -6.189883 75.835566 -14.942782 2.356478 -1.482963 0.543950 -0.161320 -0.533240 0.058690 
-0.425500 18.053400 -3.182080 -16.646545 -13.241885 -8.431473 -15.267000 12.444293 1.738708 18.787829 2.471486 -18.653884 -5.053912 12.848521 37.943654 0.940204 7.362722 1.794587 0.853930 0.689770 0.824900 18.703633 -6.819950 7.019577 -11.660461 30.359311 -57.875056 24.150510 -32.773977 76.106078 -3.669601 -15.091552 -0.338124 -0.041110 -0.586480 0.397740 -4.129379 -3.575215 -9.177864 35.332162 -18.882426 47.237334 -9.142874 -3.115078 1.482958 6.825437 -12.236639 -16.779969 -28.667924 12.453792 45.527822 -10.113040 0.117350 -24.479070 -17.258633 -15.570419 8.924606 -56.095722 15.437229 -23.000797 -62.968028 -16.483430 -2.392987 -2.835951 3.447037 0.567910 -0.584000 0.780110 0.198320 4.231475 28.989841 9.821673 54.530022 15.339431 -24.642642 -5.879990 66.684588 -11.775528 2.378966 -1.530789 0.541170 -0.166720 -0.545810 0.063020 
-0.344930 17.901680 -3.218270 -17.260572 -18.411153 -5.203514 -15.254126 12.552028 1.618358 18.802423 3.013107 -14.845784 -7.400681 12.214819 31.546429 0.844945 6.575369 2.078089 0.885060 0.727770 0.836640 18.718535 -6.955105 7.073290 -0.835218 32.256426 -48.660604 13.639449 -23.302571 77.181556 -3.226930 -13.240082 0.090641 -0.026540 -0.609820 0.405190 -4.216601 -3.384745 -9.067649 36.343496 -17.850810 46.337047 -10.280509 -1.644976 1.765842 7.124328 -12.697804 -17.274916 -30.066100 13.229409 44.916560 -10.568260 1.448280 -24.789160 -17.994757 -15.646300 9.186205 -53.422843 15.915904 -22.468621 -65.695888 -16.949183 -2.192822 -2.811147 3.486539 0.581340 -0.597190 0.803000 0.213100 4.586920 30.075469 9.942903 53.317413 16.020222 -22.714669 -6.505200 57.890553 -9.655974 2.396317 -1.541369 0.555140 -0.182630 -0.565770 0.060260 
